<svg xmlns="http://www.w3.org/2000/svg" viewBox="0 0 800 500"><defs><linearGradient id="sky" x2="0" y2="1"><stop stop-color="#89b5c9"/><stop offset="1" stop-color="#ecf5f8"/></linearGradient><linearGradient id="lake" x2="0" y2="1"><stop stop-color="#77a9b7"/><stop offset="1" stop-color="#315f79"/></linearGradient></defs><path fill="url(#sky)" d="M0 0h800v500H0z"/><circle cx="640" cy="85" r="43" fill="#fff6dd"/><path d="M-80 350L180 70l170 240L500 40l360 330" fill="#7895a7"/><path d="M105 152l75-82 73 104-70-24-35 27zM415 136l85-96 100 98-59-18-40 34-33-36z" fill="#fff"/><path d="M0 380L330 115l230 265" fill="#416d83"/><path d="M262 170l68-55 64 76-44-15-22 21-24-25z" fill="#e9f3f7"/><path d="M0 366q220-45 400 0t400 0v134H0z" fill="url(#lake)"/><path d="M0 410q80-40 180 10l100 80H0zM800 410q-90-50-190 10l-100 80h290z" fill="#e4edf0"/><text x="24" y="474" fill="#fff" font-family="Arial" font-size="18">Alpine landscape illustration</text></svg>